<svg xmlns="http://www.w3.org/2000/svg" width="21" height="23" viewBox="0 0 21 23">
  <path id="basket-icon-color" d="M19.267,6.242a.547.547,0,0,0-.19-.344.577.577,0,0,0-.377-.135H15.571v-1.1A4.492,4.492,0,0,0,14.2,1.438a4.786,4.786,0,0,0-6.631,0A4.492,4.492,0,0,0,6.194,4.659v1.1H3.061a.578.578,0,0,0-.377.135.547.547,0,0,0-.19.344L.388,21.763A.537.537,0,0,0,.41,22a.549.549,0,0,0,.125.207c.238.248.5.5.783.75a.577.577,0,0,0,.38.143H20.067a.577.577,0,0,0,.38-.143,9.072,9.072,0,0,0,.783-.75A.548.548,0,0,0,21.356,22a.537.537,0,0,0,.023-.239ZM7.347,4.648A3.4,3.4,0,0,1,8.387,2.207a3.627,3.627,0,0,1,5.025,0,3.4,3.4,0,0,1,1.041,2.441v1.1H7.33ZM19.834,22H1.92l-.375-.353L3.555,6.866h14.65l2.009,14.782Z" transform="translate(-0.383 -0.104)" fill="#a75248"/>
</svg>
