<svg xmlns="http://www.w3.org/2000/svg" width="52" height="56" viewBox="0 0 52 56">
  <path id="clean-repair" d="M-7518.894-699.37a7.16,7.16,0,0,0-7.062-6.393.585.585,0,0,1-.1.009.576.576,0,0,1-.577-.572v-.009a.576.576,0,0,1,.577-.572,7.161,7.161,0,0,0,7.16-6.394.576.576,0,0,1,.577-.517.583.583,0,0,1,.579.517,7.161,7.161,0,0,0,7.161,6.394.577.577,0,0,1,.577.572.567.567,0,0,1-.157.391.578.578,0,0,1-.43.191.585.585,0,0,1-.1-.008,7.159,7.159,0,0,0-7.053,6.393.59.59,0,0,1-.579.515A.583.583,0,0,1-7518.894-699.37Zm-4.1-6.957a8.283,8.283,0,0,1,4.668,4.571,8.315,8.315,0,0,1,4.668-4.571,8.3,8.3,0,0,1-4.668-4.571A8.261,8.261,0,0,1-7522.994-706.327Zm-13.617-2.567a24.8,24.8,0,0,0-24.812-22.15h-.067a.573.573,0,0,1-.507-.514h0c0-.008,0-.017,0-.025v0c0-.01,0-.019,0-.029s0-.019,0-.029a.572.572,0,0,1,.336-.492l.008,0,.015-.006.015-.006.007,0,.023-.008h0a.567.567,0,0,1,.152-.026h.019A24.811,24.811,0,0,0-7536.6-754.34a.573.573,0,0,1,.577-.515.582.582,0,0,1,.577.515,24.809,24.809,0,0,0,24.746,22.151.553.553,0,0,1,.291.042.575.575,0,0,1,.361.53.577.577,0,0,1-.577.572,24.81,24.81,0,0,0-24.82,22.15.6.6,0,0,1-.586.515A.579.579,0,0,1-7536.61-708.894Zm-19.308-22.722a25.913,25.913,0,0,1,19.895,19.258,25.887,25.887,0,0,1,19.883-19.258,25.915,25.915,0,0,1-19.893-19.258A25.9,25.9,0,0,1-7555.918-731.616Z" transform="translate(7562 754.855)" fill="#b1675e"/>
</svg>
