<svg width="18" height="18" viewBox="0 0 18 18" fill="none" xmlns="http://www.w3.org/2000/svg">
<g id="Frame" clip-path="url(#clip0_343_528)">
<g id="Group">
<path id="Vector" d="M0.9 9C0.9 13.4647 4.53531 17.1 9 17.1C13.4647 17.1 17.1 13.4647 17.1 9C17.1 4.53531 13.4647 0.9 9 0.9C4.53531 0.9 0.9 4.53531 0.9 9ZM1.86186 9C1.86186 5.06473 5.06473 1.86186 9 1.86186C12.9353 1.86186 16.1381 5.06473 16.1381 9C16.1381 12.9353 12.9353 16.1381 9 16.1381C5.06473 16.1381 1.86186 12.9353 1.86186 9Z" fill="#A75248" stroke="#A75248" stroke-width="0.2"/>
<path id="Vector_2" d="M11.5474 12.2324L11.6181 12.3032L11.6889 12.2325L12.2318 11.6895L12.3026 11.6187L12.2318 11.548L9.48016 8.80125V3.6665V3.5665H9.38016H8.61816H8.51816V3.6665V9.15686V9.19823L8.5474 9.22751L11.5474 12.2324Z" fill="#A75248" stroke="#A75248" stroke-width="0.2"/>
</g>
</g>
<defs>
<clipPath id="clip0_343_528">
<rect width="18" height="18" fill="white"/>
</clipPath>
</defs>
</svg>
