<svg xmlns="http://www.w3.org/2000/svg" width="46" height="56" viewBox="0 0 46 56">
  <path id="fast-delivery" d="M-7649.281-698.056l-22.46-12.166a.494.494,0,0,1-.259-.437v-29.7a.49.49,0,0,1,.241-.42l22.46-13.152a.506.506,0,0,1,.506,0l22.544,13.144a.512.512,0,0,1,.06.043.493.493,0,0,1,.183.321.542.542,0,0,1,.006.057.381.381,0,0,1,0,.063v29.639a.5.5,0,0,1-.256.435l-22.46,12.166a.481.481,0,0,1-.234.058.492.492,0,0,1-.088.008A.5.5,0,0,1-7649.281-698.056Zm.738-1.228,21.547-11.67v-28.532l-9.571,5.766v11.6a.491.491,0,0,1-.5.493.5.5,0,0,1-.5-.493v-11l-10.979,6.614ZM-7671-710.946l21.464,11.622v-27.183L-7671-739.476Zm.465-29.4,21.5,12.988,11.047-6.656-21.507-12.8Zm33.5,5.754,9.566-5.764-21.573-12.584-9.486,5.557Z" transform="translate(7672 754)" fill="#b1675e"/>
</svg>
