<svg xmlns="http://www.w3.org/2000/svg" width="25" height="30" viewBox="0 0 25 30">
  <path id="fast-delivery-small" d="M-7659.653-724.03l-12.206-6.517a.264.264,0,0,1-.141-.234v-15.911a.262.262,0,0,1,.131-.225l12.207-7.046a.277.277,0,0,1,.274,0l12.252,7.042a.327.327,0,0,1,.033.023.262.262,0,0,1,.1.172.158.158,0,0,1,0,.03.128.128,0,0,1,0,.033v15.878a.269.269,0,0,1-.139.233l-12.206,6.517a.269.269,0,0,1-.128.031.273.273,0,0,1-.048,0A.275.275,0,0,1-7659.653-724.03Zm.4-.658,11.71-6.251v-15.285l-5.2,3.089v6.217a.265.265,0,0,1-.271.264.268.268,0,0,1-.271-.264v-5.9l-5.967,3.543Zm-12.207-6.247,11.665,6.226v-14.562l-11.665-6.948Zm.253-15.749,11.684,6.958,6-3.566-11.688-6.856ZM-7653-743.6l5.2-3.088-11.725-6.741-5.155,2.977Z" transform="translate(7672 754)" fill="#b1675e"/>
</svg>
