<svg xmlns="http://www.w3.org/2000/svg" width="22.998" height="22" viewBox="0 0 22.998 22">
  <path id="favorites-icon-black" d="M14.045,7.735,12.216,2.107a.28.28,0,0,0-.107-.155.332.332,0,0,0-.353,0,.279.279,0,0,0-.107.155L9.82,7.735a2.286,2.286,0,0,1-2.174,1.58H1.728a.279.279,0,0,0-.181.054.333.333,0,0,0-.109.335.279.279,0,0,0,.115.15L6.34,13.332a2.286,2.286,0,0,1,.831,2.556L5.342,21.517a.279.279,0,0,0,0,.189.333.333,0,0,0,.285.207A.279.279,0,0,0,5.8,21.85l4.787-3.478a2.287,2.287,0,0,1,2.688,0l4.787,3.478a.279.279,0,0,0,.178.063.333.333,0,0,0,.285-.207.279.279,0,0,0,0-.189l-1.829-5.628a2.286,2.286,0,0,1,.831-2.556l4.787-3.478a.279.279,0,0,0,.115-.15.333.333,0,0,0-.109-.335.279.279,0,0,0-.181-.054H16.219A2.286,2.286,0,0,1,14.045,7.735ZM13.162,1.8a1.292,1.292,0,0,0-2.458,0L8.875,7.428a1.292,1.292,0,0,1-1.229.893H1.728a1.292,1.292,0,0,0-.76,2.338l4.787,3.478a1.292,1.292,0,0,1,.469,1.445L4.4,21.209a1.292,1.292,0,0,0,1.989,1.445l4.787-3.478a1.292,1.292,0,0,1,1.519,0l4.787,3.478a1.292,1.292,0,0,0,1.989-1.445L17.64,15.582a1.292,1.292,0,0,1,.469-1.445L22.9,10.659a1.292,1.292,0,0,0-.76-2.338H16.219a1.292,1.292,0,0,1-1.229-.893Z" transform="translate(-0.434 -0.907)" fill="#333" fill-rule="evenodd"/>
</svg>
