<svg width="600" height="200" viewBox="0 0 600 200" fill="none" xmlns="http://www.w3.org/2000/svg">
<path d="M169.5 103.94C169.563 106.002 169.062 108.042 168.05 109.84C167.08 111.443 165.765 112.809 164.2 113.84C162.534 114.928 160.699 115.732 158.77 116.22C156.739 116.751 154.649 117.02 152.55 117.02C147.217 117.02 143.197 115.496 140.49 112.45C137.75 109.45 136.38 104.74 136.38 98.4495V56.4495H125.78V100.3C125.78 108.6 127.943 115.023 132.27 119.57C136.597 124.116 142.337 126.39 149.49 126.39C152.004 126.438 154.51 126.08 156.91 125.33C158.878 124.697 160.734 123.759 162.41 122.55C163.931 121.428 165.253 120.059 166.32 118.5C167.361 116.981 168.249 115.363 168.97 113.67H169.5V124.8H180.1V56.5195H169.5V103.94ZM234 61.0895C229.98 64.2805 227.16 68.7397 226 73.7395H225.34V56.5195H203.34V65.6595H214.74V115.73H203.34V124.87H251.84V115.73H225.34V86.2695C225.34 80.5495 227.217 75.9262 230.97 72.3995C234.723 68.8729 239.647 67.1129 245.74 67.1195H258.59V56.5195H249C242.913 56.5195 237.913 58.0429 234 61.0895ZM307.57 54.9295C305.048 54.8822 302.536 55.2436 300.13 55.9995C298.163 56.6311 296.31 57.573 294.64 58.7895C293.119 59.8947 291.794 61.2467 290.72 62.7895C289.681 64.3126 288.793 65.9336 288.07 67.6295H287.55V56.5195H277V124.88H287.6V77.4595C287.539 75.4261 288.022 73.4133 289 71.6295C289.949 69.9809 291.267 68.5742 292.85 67.5195C294.515 66.428 296.35 65.6204 298.28 65.1295C300.312 64.6062 302.402 64.3408 304.5 64.3395C309.81 64.3395 313.82 65.8595 316.56 68.9095C319.3 71.9595 320.68 76.6195 320.68 82.9095V124.91H331.28V80.9995C331.28 72.6995 329.113 66.2762 324.78 61.7295C320.447 57.1829 314.73 54.9162 307.57 54.9295ZM406.77 77.9995C406.77 70.7395 404.407 65.0729 399.68 60.9995C394.953 56.9262 388.573 54.8895 380.54 54.8895C377.367 54.8557 374.203 55.239 371.13 56.0295C368.488 56.7214 365.949 57.7605 363.58 59.1195C361.492 60.3288 359.609 61.8611 358 63.6595C356.589 65.2243 355.392 66.9696 354.44 68.8495L361.58 74.1495C363.26 71.1515 365.667 68.624 368.58 66.7995C371.487 64.9795 375.24 64.0729 379.84 64.0795C385.047 64.0795 389.067 65.3329 391.9 67.8395C394.733 70.3462 396.147 74.0962 396.14 79.0895V85.7995H381.61C371.27 85.7995 363.783 87.5195 359.15 90.9595C354.517 94.3995 352.183 99.3029 352.15 105.67C352.15 112.116 354.27 117.196 358.51 120.91C362.75 124.623 368.447 126.476 375.6 126.47C381.153 126.47 385.587 125.343 388.9 123.09C392.234 120.82 394.765 117.555 396.13 113.76H396.79C397.117 116.667 398.265 119.421 400.1 121.7C401.86 123.83 404.82 124.88 408.97 124.88H416.26V115.75H406.73L406.77 77.9995ZM396.17 105C396.182 106.763 395.701 108.495 394.78 110C393.803 111.617 392.465 112.986 390.87 114C389.047 115.175 387.058 116.072 384.97 116.66C382.537 117.348 380.018 117.685 377.49 117.66C373.077 117.66 369.61 116.753 367.09 114.94C364.58 113.14 363.32 110.46 363.32 106.94V104.17C363.271 102.609 363.654 101.065 364.427 99.7078C365.2 98.3509 366.333 97.2338 367.7 96.4795C370.6 94.7062 375.233 93.8229 381.6 93.8295H396.17V105ZM463.81 61.0895C459.789 64.2794 456.968 68.7391 455.81 73.7395H455.15V56.5195H433.15V65.6595H444.56V115.73H433.13V124.87H481.64V115.73H455.15V86.2695C455.15 80.5495 457.023 75.9262 460.77 72.3995C464.517 68.8729 469.443 67.1129 475.55 67.1195H488.39V56.5195H478.86C472.753 56.5195 467.737 58.0429 463.81 61.0895ZM534.5 115.74V56.5195H507.86V65.6595H523.86V115.74H507.86V124.87H557.55V115.74H534.5ZM68.16 49.7895V56.5195C58.5962 56.5062 49.3939 60.1728 42.46 66.7595L48.87 73.5195C54.0746 68.569 60.9869 65.8148 68.17 65.8295V115.74H52.44V124.88H106.19V115.74H78.77V65.6695H106.19V56.5195H78.76V49.7895C78.7705 42.5205 81.6628 35.5523 86.8028 30.4123C91.9427 25.2724 98.911 22.3801 106.18 22.3695V11.7695C96.1005 11.7828 86.4376 15.7927 79.3104 22.9199C72.1831 30.0472 68.1732 39.7101 68.16 49.7895ZM534.16 49.7895C534.176 40.0578 530.444 30.6936 523.74 23.6395L516 30.9295C520.833 36.0183 523.522 42.7716 523.51 49.7895H534.16Z" fill="white"/>
</svg>
