<svg width="24" height="23" viewBox="0 0 24 23" fill="none" xmlns="http://www.w3.org/2000/svg">
<path d="M20.2677 3.89922H19.707V3.02003C19.707 2.20876 19.0632 1.52734 18.2516 1.52734H16.8527C16.0414 1.52734 15.3945 2.20872 15.3945 3.02003V3.89922H8.38672V3.02003C8.38672 2.20876 7.73985 1.52734 6.92854 1.52734H5.52969C4.71808 1.52734 4.07422 2.20872 4.07422 3.02003V3.89922H3.5136C2.18496 3.90375 1.11024 4.98174 1.10938 6.31017V19.0738C1.11153 20.3999 2.1875 21.4735 3.5136 21.4727H20.2677C21.5938 21.4735 22.6699 20.3999 22.6719 19.0738V6.31017C22.671 4.98174 21.5963 3.90379 20.2677 3.89922ZM16.4727 3.02003C16.4727 2.80307 16.6359 2.60547 16.8527 2.60547H18.2516C18.4685 2.60547 18.6289 2.80307 18.6289 3.02003V6.2711H16.4727V3.02003ZM5.15235 3.02003C5.15235 2.80307 5.31256 2.60547 5.52969 2.60547H6.92858C7.14537 2.60547 7.3086 2.80307 7.3086 3.02003V6.2711H5.15235V3.02003ZM3.5136 4.97735H4.07422V6.80257C4.06598 7.09621 4.29744 7.34099 4.5912 7.34922H7.86116C8.15613 7.34448 8.3916 7.10125 8.38672 6.80628V4.97735H15.3945V6.80257C15.3876 7.09754 15.6213 7.34249 15.9164 7.34922H19.1842C19.478 7.34418 19.7119 7.10212 19.707 6.80843V4.97735H20.2677C21.001 4.98123 21.5936 5.5767 21.5938 6.31017V8.64297H2.1875V6.31017C2.18767 5.5767 2.7803 4.98123 3.5136 4.97735ZM20.2677 20.3945H3.5136C2.78284 20.3962 2.18901 19.8049 2.1875 19.0742V9.7211H21.5938V19.0738C21.5923 19.8046 20.9989 20.3959 20.268 20.3945H20.2677Z" fill="#A75248"/>
</svg>
