<svg width="35" height="35" viewBox="0 0 35 35" fill="none" xmlns="http://www.w3.org/2000/svg">
<g id="&#208;&#184;&#208;&#186;&#208;&#190;&#208;&#189;&#208;&#186;&#208;&#176; &#208;&#178;&#208;&#190;&#208;&#183;&#208;&#178;&#209;&#128;&#208;&#176;&#209;&#130; 3" clip-path="url(#clip0_160_1636)">
<path id="Vector" d="M17.8387 6.89497C14.5681 6.89497 11.4142 8.44275 9.42313 11.1883C9.34924 11.2933 9.37258 11.4372 9.47369 11.515C9.57869 11.5889 9.72258 11.5655 9.80035 11.4644C12.3048 8.01108 16.7265 6.54497 20.802 7.81663C25.9665 9.42663 28.8715 14.7661 27.4131 19.9733C27.3781 20.0977 27.452 20.2261 27.5765 20.2611C27.7009 20.2961 27.8292 20.2222 27.8642 20.0977C28.5954 17.4844 28.2842 14.7311 26.9892 12.3394C25.6904 9.94386 23.5437 8.18219 20.942 7.36941C19.9154 7.05052 18.8731 6.89497 17.8387 6.89497Z" fill="#B1675E"/>
<path id="Vector_2" d="M8.13568 14.0389C8.03457 14.0389 7.94513 14.1011 7.91402 14.2022C6.2068 19.6778 9.27124 25.5228 14.7468 27.23C19.0946 28.5872 23.769 26.9889 26.3746 23.2556C26.4485 23.1506 26.4212 23.0067 26.3162 22.9328C26.2112 22.8589 26.0674 22.8861 25.9935 22.9911C23.5046 26.5572 19.0401 28.0817 14.8868 26.7867C9.65624 25.1533 6.72791 19.5728 8.36124 14.3422C8.40013 14.2178 8.33013 14.0895 8.20957 14.0506C8.18235 14.0428 8.15902 14.0389 8.13568 14.0389Z" fill="#B1675E"/>
<path id="Vector_3" d="M26.3319 22.855C26.328 22.855 26.3203 22.855 26.3164 22.855L23.6836 23.0455C23.5553 23.0533 23.458 23.1661 23.4697 23.2944C23.4775 23.4228 23.5903 23.52 23.7186 23.5083L26.1103 23.3333L26.1958 25.6394C26.1997 25.7678 26.3086 25.865 26.4369 25.865C26.5653 25.8611 26.6664 25.7522 26.6625 25.6239L26.5691 23.0767C26.5653 23.0144 26.538 22.9522 26.4914 22.9133C26.4447 22.8783 26.3903 22.855 26.3319 22.855Z" fill="#B1675E"/>
<path id="Vector_4" d="M9.34518 8.6256C9.3374 8.6256 9.32962 8.6256 9.32573 8.6256C9.1974 8.63727 9.10406 8.75005 9.11573 8.87838L9.34129 11.4178C9.34518 11.48 9.37629 11.5384 9.42684 11.5773C9.4774 11.6162 9.53962 11.6356 9.60184 11.6278L12.2191 11.3012C12.3474 11.2856 12.4368 11.1689 12.4213 11.0406C12.4057 10.9123 12.2891 10.8228 12.1607 10.8384L9.78073 11.1339L9.57851 8.83561C9.56684 8.71505 9.46573 8.6256 9.34518 8.6256Z" fill="#B1675E"/>
</g>
<defs>
<clipPath id="clip0_160_1636">
<rect width="35" height="35" fill="white" transform="matrix(1 0 0 -1 0 35)"/>
</clipPath>
</defs>
</svg>
