<svg width="32" height="32" viewBox="0 0 32 32" fill="none" xmlns="http://www.w3.org/2000/svg">
<g clip-path="url(#clip0_160_1654)">
<path d="M11.2066 18.0307C11.2512 18.0307 11.2957 18.0186 11.3321 17.9943L22.2937 11.3153C22.3666 11.2708 22.4111 11.1898 22.4111 11.1048C22.4111 11.0198 22.3666 10.9429 22.2937 10.8984L11.3321 4.42585C11.2552 4.38132 11.1621 4.38132 11.0852 4.42585L0.0831198 10.8943C0.010259 10.9389 -0.034268 11.0158 -0.0383154 11.1008C-0.0423647 11.1858 0.00620971 11.2667 0.0790704 11.3113L11.0812 17.9943C11.1176 18.0186 11.1621 18.0307 11.2066 18.0307ZM21.6987 11.1129L11.2066 17.5045L0.678155 11.1089L11.2066 4.91564L21.6987 11.1129Z" fill="#B1675E"/>
<path d="M11.2066 31.9513C11.2471 31.9513 11.2876 31.9432 11.324 31.923L22.2856 25.9362C22.3626 25.8957 22.4111 25.8107 22.4111 25.7216L22.4111 11.1088C22.4111 10.9753 22.3018 10.866 22.1683 10.866C22.0347 10.866 21.9254 10.9753 21.9254 11.1088L21.9254 25.58L11.4495 31.2996L11.4495 17.7878C11.4495 17.6542 11.3402 17.5449 11.2066 17.5449C11.0731 17.5449 10.9638 17.6542 10.9638 17.7878L10.9638 31.7044C10.9638 31.7894 11.0083 31.8703 11.0812 31.9149C11.1216 31.9391 11.1621 31.9513 11.2066 31.9513Z" fill="#B1675E"/>
<path d="M11.1663 31.9473C11.2513 31.9473 11.3363 31.9027 11.3808 31.8218C11.4456 31.7044 11.4011 31.5587 11.2837 31.4939L0.447554 25.5759L0.447556 11.1048C0.447556 10.9712 0.338264 10.8619 0.204683 10.8619C0.071104 10.8619 -0.038188 10.9712 -0.038188 11.1048L-0.0381894 25.7176C-0.0381894 25.8067 0.0103841 25.8876 0.0872932 25.9321L11.0489 31.9189C11.0853 31.9392 11.1258 31.9473 11.1663 31.9473Z" fill="#B1675E"/>
<path d="M5.36162 20.3259C5.4952 20.3259 5.6045 20.2166 5.6045 20.083L5.6045 14.3553L16.4325 7.8585C16.5459 7.78969 16.5864 7.63991 16.5175 7.52657C16.4487 7.41323 16.299 7.37276 16.1856 7.44157L5.23614 14.0113C5.16328 14.0558 5.11875 14.1327 5.11875 14.2177L5.11875 20.083C5.11875 20.2207 5.22805 20.3259 5.36162 20.3259Z" fill="#B1675E"/>
</g>
<defs>
<clipPath id="clip0_160_1654">
<rect width="32" height="32" fill="white" transform="matrix(1 0 0 -1 0 32)"/>
</clipPath>
</defs>
</svg>
