<svg width="19" height="13" viewBox="0 0 19 13" fill="none" xmlns="http://www.w3.org/2000/svg">
<g id="Group">
<path id="Vector" d="M1.35733 1.26722L1.35643 1.26791L1.35612 1.26757L1.35457 1.26934L1.35245 1.27097L1.34766 1.27649C1.20713 1.40599 1.09483 1.56311 1.01779 1.73803C0.939956 1.91477 0.899839 2.1058 0.900001 2.29892M1.35733 1.26722L1.37258 12.0334C1.37355 12.0344 1.37441 12.0356 1.37528 12.0367C1.3764 12.0382 1.37754 12.0397 1.37896 12.0411M1.35733 1.26722C1.61371 1.03058 1.94999 0.899422 2.29891 0.900003M1.35733 1.26722L18.0131 1.27443M0.900001 2.29892L0.900001 2.29883H1L0.900001 2.29892ZM0.900001 2.29892L0.900001 11.1234M0.900001 11.1234V11.1234H1L0.900001 11.1233C0.900001 11.1233 0.900001 11.1234 0.900001 11.1234ZM0.900001 11.1234C0.899565 11.4883 1.04232 11.8388 1.29745 12.0996C1.29991 12.1027 1.30445 12.1083 1.31043 12.1139L1.37896 12.0411M1.37896 12.0411C1.49946 12.1625 1.64286 12.2587 1.80084 12.3243C1.95882 12.3898 2.12823 12.4234 2.29927 12.423M1.37896 12.0411L1.30799 12.1115C1.43782 12.2423 1.59231 12.346 1.76251 12.4167C1.93264 12.4873 2.11508 12.5234 2.29927 12.523M2.29927 12.423V12.523M2.29927 12.423L2.2995 12.523M2.29927 12.423L2.2995 12.523M2.29927 12.523C2.29935 12.523 2.29943 12.523 2.2995 12.523M2.29927 12.523L2.2995 12.523M18.0566 12.1065C18.0565 12.1066 18.0564 12.1067 18.0563 12.1068L17.9857 12.036L18.0569 12.1063C18.0568 12.1063 18.0567 12.1064 18.0566 12.1065ZM18.0566 12.1065C18.1858 11.9776 18.2881 11.8243 18.3576 11.6555C18.4271 11.4868 18.4625 11.3059 18.4617 11.1234V11.1234H18.3617L18.4617 11.123L18.0566 12.1065ZM18.0131 1.27443C17.7554 1.03318 17.4154 0.899276 17.0623 0.900003M18.0131 1.27443C18.0131 1.27436 18.013 1.27428 18.0129 1.27421L17.945 1.34764L18.0134 1.27465C18.0133 1.27458 18.0132 1.2745 18.0131 1.27443ZM17.0623 0.900003H17.0624V1L17.0622 0.900003C17.0622 0.900003 17.0623 0.900003 17.0623 0.900003ZM17.0623 0.900003H2.29891M2.29891 0.900003H2.29883V1L2.299 0.900003C2.29897 0.900003 2.29894 0.900003 2.29891 0.900003ZM17.0631 11.8027H17.0624L9.46716 8.38056L9.53026 8.30298L9.46726 8.38064L9.4672 8.38059C9.53129 8.43271 9.61138 8.46116 9.69399 8.46116C9.77661 8.46116 9.85672 8.43269 9.92081 8.38056L12.092 6.61588L17.2263 11.7824C17.1732 11.7962 17.1183 11.8031 17.0631 11.8027ZM7.27744 6.6043L7.34116 6.54004L7.27015 6.46963L7.20715 6.54729L7.27744 6.6043ZM2.06145 11.8649C2.02739 11.8536 1.9941 11.8397 1.96188 11.8233L2.03647 11.7481C2.07045 11.7632 2.10562 11.7752 2.14156 11.7841L2.06145 11.8649ZM17.0624 11.9027H2.29883H17.0624ZM1.61953 11.1231V2.29886C1.61965 2.21434 1.6357 2.13097 1.66649 2.05299L6.71581 6.1489L1.63707 11.2714C1.62578 11.2229 1.61987 11.1732 1.61953 11.1231ZM12.6527 6.15972L17.6969 2.05862C17.7262 2.13512 17.7415 2.21663 17.7417 2.29921L17.7417 11.1231C17.7417 11.1232 17.7417 11.1234 17.7417 11.1235C17.7415 11.1716 17.736 11.2194 17.7256 11.2661L12.6527 6.15972ZM17.0621 1.61953C17.0621 1.61953 17.0622 1.61953 17.0623 1.61953C17.0732 1.61958 17.0842 1.61989 17.0951 1.62048L9.69377 7.63785L2.27489 1.61995C2.28311 1.6196 2.29135 1.61942 2.29959 1.61939L17.0621 1.61953Z" fill="#833D34" stroke="#833D34" stroke-width="0.2"/>
</g>
</svg>
