<svg width="20" height="20" viewBox="0 0 20 20" fill="none" xmlns="http://www.w3.org/2000/svg">
<rect width="20" height="20" fill="#F5F5F5"/>
<g id="2112" clip-path="url(#clip0_160_2)">
<rect width="1440" height="1636" transform="translate(-1164 -1519)" fill="white"/>
<rect id="Rectangle 59" x="-1164" y="-195" width="1440" height="312" fill="#ECECEC"/>
<g id="Group 68">
<g id="Group 67">
<g id="Group 66">
<g id="Frame 46">
<rect x="-22.5759" y="-10.9043" width="241" height="52" rx="0.5" stroke="#A75248"/>
<g id="Frame 7">
<g id="Frame" clip-path="url(#clip1_160_2)">
<g id="Group">
<path id="Vector" d="M2.10073 4.65198L2.09984 4.65267L2.09953 4.65233L2.09798 4.6541L2.09586 4.65573L2.09107 4.66126C1.95054 4.79075 1.83823 4.94787 1.7612 5.1228C1.68336 5.29954 1.64325 5.49056 1.64341 5.68368M2.10073 4.65198L2.11599 15.4181C2.11696 15.4192 2.11782 15.4203 2.11869 15.4215C2.11981 15.423 2.12095 15.4245 2.12237 15.4258M2.10073 4.65198C2.35712 4.41534 2.6934 4.28419 3.04232 4.28477M2.10073 4.65198L18.7566 4.6592M1.64341 5.68368L1.64341 5.6836H1.74341L1.64341 5.68368ZM1.64341 5.68368L1.64341 14.5082M1.64341 14.5082V14.5082H1.74341L1.64341 14.5081C1.64341 14.5081 1.64341 14.5081 1.64341 14.5082ZM1.64341 14.5082C1.64297 14.8731 1.78573 15.2236 2.04086 15.4844C2.04332 15.4875 2.04786 15.493 2.05384 15.4987L2.12237 15.4258M2.12237 15.4258C2.24287 15.5472 2.38627 15.6435 2.54425 15.7091C2.70222 15.7746 2.87164 15.8082 3.04268 15.8078M2.12237 15.4258L2.0514 15.4963C2.18123 15.6271 2.33572 15.7308 2.50591 15.8014C2.67604 15.872 2.85849 15.9082 3.04268 15.9078M3.04268 15.8078V15.9078M3.04268 15.8078L3.04291 15.9078M3.04268 15.8078L3.04291 15.9078M3.04268 15.9078C3.04276 15.9078 3.04284 15.9078 3.04291 15.9078M3.04268 15.9078L3.04291 15.9078M18.8 15.4913C18.7999 15.4914 18.7998 15.4915 18.7997 15.4916L18.7291 15.4208L18.8003 15.491C18.8002 15.4911 18.8001 15.4912 18.8 15.4913ZM18.8 15.4913C18.9292 15.3623 19.0315 15.209 19.101 15.0403C19.1706 14.8715 19.2059 14.6907 19.2051 14.5081V14.5082H19.1051L19.2051 14.5077L18.8 15.4913ZM18.7566 4.6592C18.4988 4.41795 18.1588 4.28404 17.8057 4.28477M18.7566 4.6592C18.7565 4.65912 18.7564 4.65905 18.7563 4.65898L18.6884 4.73241L18.7568 4.65942C18.7567 4.65934 18.7566 4.65927 18.7566 4.6592ZM17.8057 4.28477H17.8058V4.38477L17.8056 4.28477C17.8057 4.28477 17.8057 4.28477 17.8057 4.28477ZM17.8057 4.28477H3.04232M3.04232 4.28477H3.04224V4.38477L3.04241 4.28477C3.04238 4.28477 3.04235 4.28477 3.04232 4.28477ZM17.8065 15.1875H17.8058L10.2106 11.7653L10.2737 11.6877L10.2107 11.7654L10.2106 11.7654C10.2747 11.8175 10.3548 11.8459 10.4374 11.8459C10.52 11.8459 10.6001 11.8175 10.6642 11.7653L12.8354 10.0006L17.9697 15.1671C17.9166 15.181 17.8617 15.1879 17.8065 15.1875ZM8.02085 9.98907L8.08457 9.9248L8.01356 9.85439L7.95056 9.93206L8.02085 9.98907ZM2.80486 15.2497C2.77079 15.2383 2.73751 15.2244 2.70528 15.2081L2.77988 15.1329C2.81386 15.148 2.84903 15.16 2.88496 15.1689L2.80486 15.2497ZM17.8058 15.2875H3.04224H17.8058ZM2.36294 14.5079V5.68362C2.36305 5.59911 2.37911 5.51573 2.4099 5.43776L7.45922 9.53366L2.38048 14.6562C2.36919 14.6077 2.36327 14.558 2.36294 14.5079ZM13.3961 9.54449L18.4403 5.44339C18.4696 5.51989 18.4849 5.60139 18.4851 5.68398L18.4851 14.5079C18.4851 14.508 18.4851 14.5081 18.4851 14.5083C18.4849 14.5564 18.4794 14.6042 18.469 14.6509L13.3961 9.54449ZM17.8055 5.0043C17.8055 5.0043 17.8056 5.0043 17.8057 5.0043C17.8166 5.00434 17.8276 5.00466 17.8385 5.00524L10.4372 11.0226L3.0183 5.00471C3.02652 5.00437 3.03476 5.00418 3.043 5.00415L17.8055 5.0043Z" fill="#833D34" stroke="#833D34" stroke-width="0.2"/>
</g>
</g>
</g>
</g>
</g>
</g>
</g>
</g>
<defs>
<clipPath id="clip0_160_2">
<rect width="1440" height="1636" fill="white" transform="translate(-1164 -1519)"/>
</clipPath>
<clipPath id="clip1_160_2">
<rect width="19" height="19" fill="white" transform="translate(0.924072 0.595703)"/>
</clipPath>
</defs>
</svg>
