<svg width="18" height="18" viewBox="0 0 18 18" fill="none" xmlns="http://www.w3.org/2000/svg">
<g id="Frame" clip-path="url(#clip0_343_509)">
<g id="Group">
<path id="Vector" d="M9.00013 0C5.43641 0 2.53711 2.8993 2.53711 6.46302C2.53711 8.37232 3.58719 10.8801 5.65825 13.9167C6.60705 15.3023 7.63934 16.6287 8.74936 17.8888C8.78107 17.9238 8.81977 17.9518 8.86296 17.971C8.90615 17.9901 8.95288 18 9.00013 18C9.04738 18 9.09411 17.9901 9.1373 17.971C9.18049 17.9518 9.21919 17.9238 9.2509 17.8888C10.3609 16.6287 11.3932 15.3023 12.342 13.9167C14.413 10.8801 15.4631 8.37232 15.4631 6.46302C15.4631 2.8993 12.5638 0 9.00013 0ZM9.00013 17.1486C7.85832 15.8259 3.2138 10.2138 3.2138 6.46302C3.2138 3.27245 5.80952 0.676688 9.00013 0.676688C12.1907 0.676688 14.7865 3.27245 14.7865 6.46302C14.7865 10.2138 10.1419 15.8259 9.00013 17.1486Z" fill="#A75248"/>
<path id="Vector_2" d="M9.00019 3.23633C8.41396 3.23632 7.8409 3.41015 7.35346 3.73584C6.86602 4.06153 6.48611 4.52444 6.26177 5.06604C6.03742 5.60765 5.97872 6.20362 6.09308 6.77858C6.20745 7.35355 6.48974 7.88169 6.90426 8.29622C7.31879 8.71075 7.84693 8.99305 8.42189 9.10742C8.99686 9.22179 9.59283 9.16309 10.1344 8.93876C10.676 8.71442 11.139 8.33451 11.4647 7.84708C11.7903 7.35965 11.9642 6.78658 11.9642 6.20035C11.9633 5.41452 11.6507 4.66114 11.0951 4.10547C10.5394 3.5498 9.78602 3.23723 9.00019 3.23633ZM9.00019 8.48765C8.5478 8.48766 8.10556 8.35351 7.7294 8.10218C7.35325 7.85085 7.06007 7.49362 6.88694 7.07566C6.71381 6.6577 6.66851 6.19779 6.75677 5.75409C6.84503 5.31038 7.06288 4.90282 7.38277 4.58293C7.70266 4.26303 8.11023 4.04519 8.55393 3.95693C8.99763 3.86867 9.45754 3.91397 9.8755 4.0871C10.2935 4.26023 10.6507 4.55341 10.902 4.92956C11.1534 5.30572 11.2875 5.74796 11.2875 6.20035C11.2868 6.80677 11.0456 7.38816 10.6168 7.81697C10.188 8.24577 9.60661 8.48697 9.00019 8.48765Z" fill="#A75248"/>
</g>
</g>
<defs>
<clipPath id="clip0_343_509">
<rect width="18" height="18" fill="white"/>
</clipPath>
</defs>
</svg>
