<svg xmlns="http://www.w3.org/2000/svg" width="26.501" height="16.501" viewBox="0 0 26.501 16.501">
  <path id="pay-icon" d="M-8567.25-628a1.752,1.752,0,0,1-1.75-1.751v-13a1.752,1.752,0,0,1,1.75-1.751h23a1.754,1.754,0,0,1,1.751,1.751v13A1.754,1.754,0,0,1-8544.25-628Zm-.75-1.751a.749.749,0,0,0,.75.751h23a.751.751,0,0,0,.751-.751v-8.75H-8568Zm24.5-9.75v-3.249a.751.751,0,0,0-.751-.751h-23a.749.749,0,0,0-.75.751v3.249Zm-7.252,8.5a.5.5,0,0,1-.5-.5.5.5,0,0,1,.5-.5h5a.5.5,0,0,1,.5.5.5.5,0,0,1-.5.5Zm-8,0a.5.5,0,0,1-.5-.5.5.5,0,0,1,.5-.5h5a.5.5,0,0,1,.5.5.5.5,0,0,1-.5.5Zm-7-2.5a.5.5,0,0,1-.5-.5.5.5,0,0,1,.5-.5h5a.5.5,0,0,1,.5.5.5.5,0,0,1-.5.5Zm15-2.5a.5.5,0,0,1-.5-.5.5.5,0,0,1,.5-.5h5a.5.5,0,0,1,.5.5.5.5,0,0,1-.5.5Zm-15.017,0a.491.491,0,0,1-.482-.5.491.491,0,0,1,.482-.5h12.036a.491.491,0,0,1,.481.5.492.492,0,0,1-.481.5Z" transform="translate(8569 644.5)" fill="#b1675e"/>
</svg>
