<svg xmlns="http://www.w3.org/2000/svg" width="40" height="21" viewBox="0 0 40 21">
  <path id="personal-small" d="M-7442.07-745.2a1.959,1.959,0,0,1-1.942-1.512,1.917,1.917,0,0,1,1.063-2.2l17.281-8.347a.307.307,0,0,1,.408.135.3.3,0,0,1-.138.4l-17.285,8.352a1.315,1.315,0,0,0-.735,1.521,1.339,1.339,0,0,0,1.348,1.047h36.006a1.345,1.345,0,0,0,1.35-1.047,1.315,1.315,0,0,0-.736-1.521L-7424.232-757a.3.3,0,0,1-.174-.27v-2.74a.305.305,0,0,1,.306-.3h.031a2.676,2.676,0,0,0,2.7-2.644,2.676,2.676,0,0,0-2.7-2.644,2.675,2.675,0,0,0-2.7,2.644.3.3,0,0,1-.306.3.3.3,0,0,1-.307-.3,3.284,3.284,0,0,1,3.311-3.245,3.284,3.284,0,0,1,3.311,3.245,3.278,3.278,0,0,1-3.035,3.234v2.254l18.609,8.558a1.915,1.915,0,0,1,1.067,2.2,1.965,1.965,0,0,1-1.952,1.512Z" transform="translate(7444.064 766.195)" fill="#b1675e"/>
</svg>
