<svg xmlns="http://www.w3.org/2000/svg" width="75" height="40" viewBox="0 0 75 40">
  <path id="personal" d="M-7440.325-726.2a3.685,3.685,0,0,1-3.641-2.881,3.669,3.669,0,0,1,1.994-4.186l32.4-15.9a.572.572,0,0,1,.766.257.568.568,0,0,1-.26.764l-32.409,15.908a2.518,2.518,0,0,0-1.379,2.9,2.522,2.522,0,0,0,2.528,1.994h67.512a2.531,2.531,0,0,0,2.53-1.994,2.517,2.517,0,0,0-1.379-2.9l-35.217-16.442a.57.57,0,0,1-.326-.515v-5.218a.576.576,0,0,1,.574-.572h.059a5.055,5.055,0,0,0,5.058-5.035,5.056,5.056,0,0,0-5.058-5.035,5.055,5.055,0,0,0-5.06,5.035.574.574,0,0,1-.574.572.574.574,0,0,1-.575-.572,6.205,6.205,0,0,1,6.208-6.181,6.2,6.2,0,0,1,6.207,6.181,6.2,6.2,0,0,1-5.69,6.159v4.293l34.892,16.3a3.666,3.666,0,0,1,2,4.186,3.7,3.7,0,0,1-3.66,2.881Z" transform="translate(7444.064 766.195)" fill="#b1675e"/>
</svg>
