<svg xmlns="http://www.w3.org/2000/svg" width="14" height="14.003" viewBox="0 0 14 14.003">
  <path id="phone-icon" d="M-7201.526,73l-.008,0a7.7,7.7,0,0,1-2.772-.813,14.656,14.656,0,0,1-4.888-3.814,13.291,13.291,0,0,1-2.389-3.971,5.411,5.411,0,0,1-.4-2.339,2.357,2.357,0,0,1,.706-1.51l1.06-1.054a1.645,1.645,0,0,1,1.144-.495,1.613,1.613,0,0,1,1.132.488c.2.183.771.767,1.711,1.7a1.62,1.62,0,0,1,.526,1.155,1.628,1.628,0,0,1-.526,1.153c-.088.086-.174.172-.259.26-.208.211-.426.433-.66.649a6.315,6.315,0,0,0,.783,1.207,10.5,10.5,0,0,0,2.515,2.279,3.244,3.244,0,0,0,.294.16c.053.026.105.053.158.081l.912-.908a1.613,1.613,0,0,1,1.145-.51,1.573,1.573,0,0,1,1.137.516l1.7,1.693a1.56,1.56,0,0,1,.009,2.3c-.114.12-.949.964-.958.973a2.423,2.423,0,0,1-1.875.8C-7201.4,73-7201.461,73-7201.526,73Zm-7.937-12.732-1.051,1.047a1.281,1.281,0,0,0-.394.838,4.372,4.372,0,0,0,.345,1.881,12.349,12.349,0,0,0,2.2,3.652,13.569,13.569,0,0,0,4.525,3.532,6.646,6.646,0,0,0,2.367.709c.047,0,.093.005.136.005a1.373,1.373,0,0,0,1.07-.449c.181-.215.852-.862.972-.991a.489.489,0,0,0,.012-.792l-1.712-1.7a.53.53,0,0,0-.359-.188.567.567,0,0,0-.38.194l-1.06,1.054a.778.778,0,0,1-.558.25.79.79,0,0,1-.364-.093l-.023-.012-.022-.012c-.088-.056-.19-.107-.294-.16l-.064-.032c-.107-.055-.22-.111-.331-.181a11.488,11.488,0,0,1-2.774-2.519,6.819,6.819,0,0,1-1.022-1.658l0-.012c0-.009-.006-.016-.009-.023a.747.747,0,0,1,.19-.825c.27-.241,1.014-.993,1.058-1.037a.581.581,0,0,0,.209-.389.584.584,0,0,0-.209-.391c-.894-.892-1.531-1.538-1.693-1.686a.541.541,0,0,0-.378-.194A.572.572,0,0,0-7209.464,60.266Z" transform="translate(7212 -59)" fill="#a75248"/>
</svg>
