<svg xmlns="http://www.w3.org/2000/svg" width="14" height="14.003" viewBox="0 0 14 14.003">
  <path id="phone-icon-white" d="M-7201.526,73l-.008,0a7.7,7.7,0,0,1-2.772-.813,14.656,14.656,0,0,1-4.888-3.814,13.291,13.291,0,0,1-2.389-3.971,5.411,5.411,0,0,1-.4-2.339,2.357,2.357,0,0,1,.706-1.51l1.06-1.054a1.645,1.645,0,0,1,1.144-.495,1.613,1.613,0,0,1,1.132.488c.2.183.4.384.579.572l.007.007c.094.1.185.188.28.285l.845.84a1.62,1.62,0,0,1,.526,1.155,1.628,1.628,0,0,1-.526,1.153c-.088.086-.174.172-.259.26-.208.211-.426.433-.66.649a6.315,6.315,0,0,0,.783,1.207,10.5,10.5,0,0,0,2.515,2.279,3.244,3.244,0,0,0,.294.16c.053.026.105.053.158.081l.912-.908a1.613,1.613,0,0,1,1.145-.51,1.573,1.573,0,0,1,1.137.516l1.7,1.693a1.56,1.56,0,0,1,.009,2.3c-.114.12-.239.243-.407.4l-.037.037a6.353,6.353,0,0,0-.486.5.331.331,0,0,1-.028.033,2.423,2.423,0,0,1-1.875.8C-7201.4,73-7201.461,73-7201.526,73Zm-9.874-8.666a13.131,13.131,0,0,0,2.353,3.913,14.5,14.5,0,0,0,4.823,3.763,7.5,7.5,0,0,0,2.7.8c.065,0,.127.005.192.005a2.242,2.242,0,0,0,1.734-.741.1.1,0,0,0,.012-.014,7.333,7.333,0,0,1,.546-.565c.133-.127.269-.259.4-.394a1.469,1.469,0,0,0,.452-1.022,1.469,1.469,0,0,1-.452,1.022c-.13.136-.266.268-.4.394a7.333,7.333,0,0,0-.546.565.1.1,0,0,1-.012.014,2.242,2.242,0,0,1-1.734.741c-.065,0-.126,0-.192-.005a7.5,7.5,0,0,1-2.7-.8,14.5,14.5,0,0,1-4.823-3.763,13.131,13.131,0,0,1-2.353-3.913,5.629,5.629,0,0,1-.406-1.937A5.629,5.629,0,0,0-7211.4,64.331Zm1.936-4.066-1.051,1.047a1.281,1.281,0,0,0-.394.838,4.372,4.372,0,0,0,.345,1.881,12.349,12.349,0,0,0,2.2,3.652,13.569,13.569,0,0,0,4.525,3.532,6.646,6.646,0,0,0,2.367.709c.047,0,.093.005.136.005a1.373,1.373,0,0,0,1.07-.449c.181-.215.377-.4.567-.59l.035-.032c.122-.116.25-.241.37-.37a.489.489,0,0,0,.012-.792l-1.712-1.7a.53.53,0,0,0-.359-.188.567.567,0,0,0-.38.194l-1.06,1.054a.778.778,0,0,1-.558.25.79.79,0,0,1-.364-.093l-.023-.012-.022-.012c-.088-.056-.19-.107-.294-.16l-.064-.032c-.107-.055-.22-.111-.331-.181a11.488,11.488,0,0,1-2.774-2.519,6.819,6.819,0,0,1-1.022-1.658l0-.012c0-.009-.006-.016-.009-.023a.747.747,0,0,1,.19-.825l.023-.023c.247-.218.471-.445.711-.688l.06-.06.132-.132.132-.134a.581.581,0,0,0,.209-.389.584.584,0,0,0-.209-.391l-.843-.84-.148-.151c-.051-.049-.1-.1-.149-.15l-.074-.077c-.164-.164-.317-.32-.479-.468l-.007-.007a.532.532,0,0,0-.372-.187A.572.572,0,0,0-7209.464,60.266Zm8.617,7.6,1.707,1.7a.739.739,0,0,1,.253.524.739.739,0,0,0-.253-.524l-1.707-1.7a.7.7,0,0,0-.5-.252.751.751,0,0,0-.518.252l-1.06,1.054a.6.6,0,0,1-.42.192.6.6,0,0,1-.274-.07.2.2,0,0,1-.032-.018c-.093-.058-.2-.113-.312-.169a3.883,3.883,0,0,1-.373-.2,11.286,11.286,0,0,1-2.73-2.476,6.623,6.623,0,0,1-.994-1.612c0-.007-.005-.014-.009-.021a.72.72,0,0,1-.042-.231.72.72,0,0,0,.042.231c0,.007,0,.014.009.021a6.623,6.623,0,0,0,.994,1.612,11.286,11.286,0,0,0,2.73,2.476,3.883,3.883,0,0,0,.373.2c.113.056.218.111.312.169a.2.2,0,0,0,.032.018.6.6,0,0,0,.274.07.6.6,0,0,0,.42-.192l1.06-1.054a.751.751,0,0,1,.518-.252A.7.7,0,0,1-7200.847,67.864Zm-5.526-4.5c-.088.086-.176.174-.261.262-.241.245-.489.5-.757.736.268-.239.516-.491.757-.736.084-.088.172-.176.261-.262a1.443,1.443,0,0,0,.47-1.016A1.443,1.443,0,0,1-7206.373,63.361Zm-3.227-3.237-1.052,1.051a1.479,1.479,0,0,0-.451.957c-.007.089-.011.179-.01.271,0-.092,0-.182.01-.271a1.479,1.479,0,0,1,.451-.957l1.052-1.051a.774.774,0,0,1,.521-.239.727.727,0,0,1,.51.246c.19.174.368.357.562.553.095.1.193.2.294.3l.843.84a.769.769,0,0,1,.268.528.769.769,0,0,0-.268-.528l-.843-.84c-.1-.1-.2-.2-.294-.3-.194-.2-.372-.378-.562-.553a.727.727,0,0,0-.51-.246A.774.774,0,0,0-7209.6,60.125Z" transform="translate(7212 -59)" fill="#fff"/>
</svg>
