<svg xmlns="http://www.w3.org/2000/svg" width="28" height="28" viewBox="0 0 28 28">
  <path id="return-small" d="M-7670.628-737.931l-.229,2.594a.312.312,0,0,1-.313.282h-.026a.311.311,0,0,1-.282-.339l.3-3.416a.293.293,0,0,1,.115-.214.321.321,0,0,1,.236-.068l3.521.44a.313.313,0,0,1,.272.35.313.313,0,0,1-.351.272l-2.8-.348a13.361,13.361,0,0,0,14.428,4.413,13.3,13.3,0,0,0,8.895-16.355.316.316,0,0,1,.22-.387.315.315,0,0,1,.387.22,13.928,13.928,0,0,1-1.177,10.438,13.919,13.919,0,0,1-8.137,6.686,14.049,14.049,0,0,1-4.175.638A13.989,13.989,0,0,1-7670.628-737.931Zm-2.468-4.626a14.01,14.01,0,0,1,9.194-17.526,13.942,13.942,0,0,1,15.3,4.878l.1-2.738a.32.32,0,0,1,.325-.3.316.316,0,0,1,.3.324l-.126,3.427a.31.31,0,0,1-.1.22.363.363,0,0,1-.214.079h-.021l-3.542-.257a.307.307,0,0,1-.288-.334.308.308,0,0,1,.335-.288l2.7.2a13.319,13.319,0,0,0-14.579-4.608,13.379,13.379,0,0,0-8.781,16.741.314.314,0,0,1-.2.393.353.353,0,0,1-.1.016A.308.308,0,0,1-7673.1-742.557Z" transform="translate(7673.731 760.727)" fill="#b1675e"/>
</svg>
