<svg xmlns="http://www.w3.org/2000/svg" width="50" height="50" viewBox="0 0 50 50">
  <path id="return" d="M-7668.189-720.02l-.408,4.632a.557.557,0,0,1-.56.5h-.047a.555.555,0,0,1-.5-.606l.541-6.1a.524.524,0,0,1,.206-.383.574.574,0,0,1,.421-.122l6.288.785a.559.559,0,0,1,.486.625.559.559,0,0,1-.627.486l-5-.622a23.858,23.858,0,0,0,25.765,7.881,23.74,23.74,0,0,0,15.883-29.2.563.563,0,0,1,.393-.692.562.562,0,0,1,.692.393,24.873,24.873,0,0,1-2.1,18.639,24.857,24.857,0,0,1-14.531,11.94,25.086,25.086,0,0,1-7.456,1.14A24.981,24.981,0,0,1-7668.189-720.02Zm-4.407-8.261a25.019,25.019,0,0,1,16.417-31.3,24.9,24.9,0,0,1,27.327,8.71l.182-4.889a.571.571,0,0,1,.58-.543.565.565,0,0,1,.543.579l-.225,6.12a.557.557,0,0,1-.187.393.65.65,0,0,1-.383.141h-.038l-6.325-.459a.548.548,0,0,1-.514-.6.55.55,0,0,1,.6-.515l4.814.353a23.784,23.784,0,0,0-26.034-8.228,23.89,23.89,0,0,0-15.68,29.895.56.56,0,0,1-.364.7.633.633,0,0,1-.177.029A.551.551,0,0,1-7672.6-728.281Z" transform="translate(7673.731 760.727)" fill="#b1675e"/>
</svg>
