<svg width="74" height="40" viewBox="0 0 74 40" fill="none" xmlns="http://www.w3.org/2000/svg">
<path d="M70.2313 39.61H3.68579C1.66468 39.61 0.427454 38.1745 0.0968984 36.7578C-0.233657 35.3411 0.248009 33.5089 2.06134 32.6117L34.0025 16.8678C34.2858 16.7261 34.6258 16.8489 34.758 17.1228C34.8997 17.4061 34.7769 17.7461 34.503 17.8784L2.55245 33.6317C1.21134 34.2928 0.984676 35.5961 1.19245 36.5028C1.40023 37.4095 2.18412 38.4767 3.68579 38.4767H70.2408C71.7425 38.4767 72.5169 37.4095 72.7341 36.5028C72.9419 35.5961 72.7152 34.2928 71.3741 33.6317L36.6563 17.3495C36.458 17.255 36.3352 17.0567 36.3352 16.8395V11.6734C36.3352 11.3617 36.5902 11.1067 36.9019 11.1067C37.2136 11.1067 37.4686 11.3617 37.4686 11.6734V16.4711L71.8652 32.6117C73.688 33.5089 74.1697 35.3411 73.8391 36.7578C73.4991 38.1839 72.2619 39.61 70.2313 39.61Z" fill="#B1675E"/>
<path d="M36.9584 12.24C36.6467 12.24 36.3917 11.985 36.3917 11.6733C36.3917 11.3617 36.6467 11.1067 36.9584 11.1067C39.7067 11.1067 41.945 8.86834 41.945 6.12C41.945 3.37167 39.7067 1.13333 36.9584 1.13333C34.21 1.13333 31.9717 3.37167 31.9717 6.12C31.9717 6.43167 31.7167 6.68667 31.405 6.68667C31.0934 6.68667 30.8384 6.43167 30.8384 6.12C30.8384 2.74834 33.5867 0 36.9584 0C40.33 0 43.0784 2.74834 43.0784 6.12C43.0784 9.49167 40.33 12.24 36.9584 12.24Z" fill="#B1675E"/>
</svg>
