<svg width="54" height="58" viewBox="0 0 54 58" fill="none" xmlns="http://www.w3.org/2000/svg">
<path d="M27.0679 47.7633C26.7648 47.7633 26.5204 47.5384 26.4813 47.2353C25.1417 34.2993 14.2982 24.5411 1.27417 24.5411C0.9515 24.5411 0.6875 24.2771 0.6875 23.9544C0.6875 23.6317 0.9515 23.3677 1.27417 23.3677C14.2982 23.3677 25.1417 13.6095 26.4911 0.673509C26.5204 0.370398 26.7746 0.145508 27.0777 0.145508C27.3808 0.145508 27.6253 0.370398 27.6644 0.673509C29.0137 13.6095 39.8573 23.3677 52.8813 23.3677C53.2039 23.3677 53.4679 23.6317 53.4679 23.9544C53.4679 24.2771 53.2039 24.5411 52.8813 24.5411C39.8573 24.5411 29.0137 34.2993 27.6644 47.2353C27.6253 47.5286 27.3711 47.7633 27.0679 47.7633ZM6.86706 23.9544C16.7915 26.0664 24.7017 33.7028 27.0777 43.686C29.4439 33.7028 37.3542 26.0664 47.2786 23.9544C37.3542 21.8424 29.4439 14.206 27.0679 4.22284C24.7017 14.206 16.7817 21.8424 6.86706 23.9544Z" fill="#B1675E"/>
<path d="M1.27417 24.5415C1.25461 24.5415 1.22528 24.5415 1.20572 24.5415C0.912389 24.5122 0.6875 24.2579 0.6875 23.9548C0.6875 23.6419 0.941723 23.3779 1.25461 23.3682C1.27417 23.3682 1.29372 23.3682 1.31328 23.3682C1.62617 23.3877 1.87061 23.6419 1.87061 23.9548C1.86083 24.2775 1.59683 24.5415 1.27417 24.5415Z" fill="#B1675E"/>
<path d="M52.8601 24.541C52.5374 24.541 52.2734 24.277 52.2734 23.9544C52.2734 23.6513 52.5081 23.397 52.8014 23.3677C53.1143 23.3286 53.3881 23.5535 53.4468 23.8566C53.4957 24.1401 53.3294 24.4139 53.0557 24.5019C53.0165 24.5117 52.9774 24.5215 52.9481 24.5313C52.9286 24.5313 52.909 24.5313 52.8894 24.5313C52.8797 24.541 52.8797 24.541 52.8601 24.541Z" fill="#B1675E"/>
<path d="M45.0691 57.522C44.766 57.522 44.5215 57.2971 44.4824 56.994C44.0913 53.2589 40.9624 50.4429 37.2078 50.4429C36.8851 50.4429 36.6211 50.1789 36.6211 49.8562C36.6211 49.5335 36.8851 49.2695 37.2078 49.2695C40.9624 49.2695 44.0913 46.4535 44.4824 42.7184C44.5118 42.4153 44.766 42.1904 45.0691 42.1904C45.3722 42.1904 45.6166 42.4153 45.6558 42.7184C46.0469 46.4535 49.1758 49.2695 52.9304 49.2695C53.2531 49.2695 53.5171 49.5335 53.5171 49.8562C53.5171 50.1789 53.2531 50.4429 52.9304 50.4429C49.1758 50.4429 46.0469 53.2589 45.6558 56.994C45.6166 57.2971 45.3624 57.522 45.0691 57.522ZM40.3171 49.866C42.4584 50.7069 44.1891 52.3984 45.0593 54.5495C45.9393 52.3984 47.6602 50.7069 49.8015 49.866C47.6602 49.0251 45.9295 47.3335 45.0593 45.1824C44.1891 47.3335 42.4682 49.0251 40.3171 49.866Z" fill="#B1675E"/>
<path d="M37.2078 50.4526C36.8851 50.4526 36.6211 50.1886 36.6211 49.866C36.6211 49.5433 36.8851 49.2793 37.2078 49.2793C37.5304 49.2793 37.7944 49.5433 37.7944 49.866C37.7944 50.1886 37.5304 50.4526 37.2078 50.4526Z" fill="#B1675E"/>
<path d="M52.9187 50.4526C53.2427 50.4526 53.5054 50.19 53.5054 49.866C53.5054 49.542 53.2427 49.2793 52.9187 49.2793C52.5947 49.2793 52.332 49.542 52.332 49.866C52.332 50.19 52.5947 50.4526 52.9187 50.4526Z" fill="#B1675E"/>
</svg>
