<svg width="46" height="56" viewBox="0 0 46 56" fill="none" xmlns="http://www.w3.org/2000/svg">
<path d="M22.7591 27.7027C22.6687 27.7027 22.5782 27.6781 22.5042 27.6287L0.238445 14.0621C0.0904452 13.9716 0 13.8072 0 13.6345C0 13.4618 0.0904452 13.3056 0.238445 13.2152L22.5042 0.0678333C22.6604 -0.0226111 22.8496 -0.0226111 23.0058 0.0678333L45.3538 13.2069C45.5018 13.2974 45.5922 13.4536 45.6004 13.6263C45.6087 13.7989 45.51 13.9634 45.362 14.0538L23.014 27.6287C22.94 27.6781 22.8496 27.7027 22.7591 27.7027ZM1.44711 13.6509L22.7591 26.6338L44.1451 13.6427L22.7591 1.06272L1.44711 13.6509Z" fill="#B1675E"/>
<path d="M22.7591 55.979C22.6769 55.979 22.5947 55.9625 22.5207 55.9214L0.254889 43.7607C0.0986672 43.6785 0 43.5059 0 43.325V13.6427C0 13.3714 0.222 13.1494 0.493333 13.1494C0.764667 13.1494 0.986667 13.3714 0.986667 13.6427V43.0372L22.2658 54.6552V27.2094C22.2658 26.9381 22.4878 26.7161 22.7591 26.7161C23.0304 26.7161 23.2524 26.9381 23.2524 27.2094V55.4774C23.2524 55.6501 23.162 55.8145 23.014 55.905C22.9318 55.9543 22.8496 55.979 22.7591 55.979Z" fill="#B1675E"/>
<path d="M22.8411 55.9708C22.6684 55.9708 22.4957 55.8804 22.4053 55.7159C22.2737 55.4775 22.3642 55.1815 22.6026 55.0499L44.6135 43.029V13.6346C44.6135 13.3632 44.8355 13.1412 45.1068 13.1412C45.3782 13.1412 45.6002 13.3632 45.6002 13.6346V43.3168C45.6002 43.4977 45.5015 43.6621 45.3453 43.7526L23.0795 55.9132C23.0055 55.9543 22.9233 55.9708 22.8411 55.9708Z" fill="#B1675E"/>
<path d="M34.6318 32.3647C34.3605 32.3647 34.1385 32.1427 34.1385 31.8714V20.237L12.144 7.04029C11.9138 6.90051 11.8316 6.59629 11.9714 6.36606C12.1111 6.13584 12.4154 6.05362 12.6456 6.1934L34.8867 19.5381C35.0347 19.6285 35.1251 19.7847 35.1251 19.9574V31.8714C35.1251 32.151 34.9031 32.3647 34.6318 32.3647Z" fill="#B1675E"/>
</svg>
