<svg width="51" height="51" viewBox="0 0 51 51" fill="none" xmlns="http://www.w3.org/2000/svg">
<path d="M25.2498 50.5455C17.3071 50.5455 9.64762 46.7866 4.81207 40.1189C4.63262 39.8639 4.68929 39.5144 4.93484 39.3255C5.18984 39.1461 5.53929 39.2027 5.72818 39.4483C11.8104 47.835 22.5487 51.3955 32.4465 48.3072C44.9887 44.3972 52.0437 31.43 48.5021 18.7839C48.4171 18.4816 48.5965 18.17 48.8987 18.085C49.201 18 49.5126 18.1794 49.5976 18.4816C51.3732 24.8283 50.6176 31.515 47.4726 37.3233C44.3182 43.1411 39.1048 47.4194 32.7865 49.3933C30.2932 50.1677 27.7621 50.5455 25.2498 50.5455Z" fill="#B1675E"/>
<path d="M1.6861 33.1961C1.44055 33.1961 1.22333 33.045 1.14777 32.7994C-2.99834 19.5017 4.44388 5.30667 17.7417 1.16056C28.3005 -2.13555 39.6528 1.74612 45.9805 10.8128C46.16 11.0678 46.0939 11.4172 45.8389 11.5967C45.5839 11.7761 45.2344 11.71 45.055 11.455C39.0105 2.79445 28.1683 -0.907773 18.0817 2.23723C5.37888 6.20389 -1.73279 19.7567 2.23388 32.4594C2.32833 32.7617 2.15833 33.0733 1.86555 33.1678C1.79944 33.1867 1.74277 33.1961 1.6861 33.1961Z" fill="#B1675E"/>
<path d="M45.8768 11.7856C45.8673 11.7856 45.8484 11.7856 45.839 11.7856L39.4451 11.3228C39.1334 11.3039 38.8973 11.03 38.9256 10.7184C38.9445 10.4067 39.2184 10.1706 39.5301 10.1989L45.3384 10.6239L45.5462 5.02336C45.5556 4.7117 45.8201 4.47559 46.1318 4.47559C46.4434 4.48503 46.689 4.74948 46.6795 5.06114L46.4529 11.2473C46.4434 11.3984 46.3773 11.5495 46.264 11.6439C46.1506 11.7289 46.0184 11.7856 45.8768 11.7856Z" fill="#B1675E"/>
<path d="M4.62309 46.3427C4.6042 46.3427 4.58531 46.3427 4.57587 46.3427C4.2642 46.3144 4.03753 46.0405 4.06587 45.7288L4.61365 39.5616C4.62309 39.4105 4.69865 39.2688 4.82142 39.1744C4.9442 39.0799 5.09531 39.0327 5.24642 39.0516L11.6025 39.8449C11.9142 39.8827 12.1314 40.166 12.0936 40.4777C12.0559 40.7894 11.7725 41.0066 11.4609 40.9688L5.68087 40.251L5.18976 45.8327C5.16142 46.1255 4.91587 46.3427 4.62309 46.3427Z" fill="#B1675E"/>
</svg>
