<svg width="18" height="18" viewBox="0 0 18 18" fill="none" xmlns="http://www.w3.org/2000/svg">
<g id="Frame 10">
<path id="Vector" d="M5.25789 3.03342L5.25797 3.03334C5.10547 2.87876 4.94916 2.81073 4.80501 2.81073C4.6568 2.81073 4.49431 2.87977 4.33915 3.02879L3.25654 4.10731C2.9939 4.36896 2.85553 4.66885 2.8226 5.03129C2.77768 5.59479 2.88679 6.22046 3.18347 7.00957L3.18359 7.0099C3.66224 8.29678 4.38657 9.49964 5.46692 10.7952C6.777 12.3568 8.35557 13.5866 10.1537 14.4535C10.8184 14.7686 11.6919 15.1327 12.6268 15.1924C12.6269 15.1924 12.627 15.1924 12.627 15.1924L5.25789 3.03342ZM5.25789 3.03342L5.26138 3.03664M5.25789 3.03342L5.26138 3.03664M5.26138 3.03664C5.42866 3.19086 5.58725 3.3515 5.7561 3.52254C5.78192 3.5487 5.80799 3.5751 5.83436 3.60176C5.88409 3.65275 5.9345 3.7037 5.98497 3.7547L5.98599 3.75573C6.03629 3.80656 6.08666 3.85747 6.137 3.90905L6.13699 3.90905M5.26138 3.03664L6.13699 3.90905M6.13699 3.90905L6.13799 3.91005M6.13699 3.90905L6.13799 3.91005M6.13799 3.91005L7.00575 4.77453C7.17578 4.94392 7.25005 5.1027 7.25005 5.24617C7.25005 5.38963 7.17578 5.54841 7.00575 5.7178C6.96031 5.76307 6.91492 5.80901 6.86987 5.85463L6.86978 5.85471C6.8246 5.90045 6.77974 5.94586 6.73494 5.99049L6.73456 5.99087M6.13799 3.91005L6.73456 5.99087M6.73456 5.99087C6.71424 6.01132 6.69405 6.03168 6.67394 6.05194C6.4253 6.30252 6.19151 6.53812 5.93567 6.7638L5.93554 6.76366M6.73456 5.99087L5.93554 6.76366M5.93554 6.76366L5.93124 6.76795M5.93554 6.76366L5.93124 6.76795M5.93124 6.76795L5.91668 6.78245C5.78157 6.91705 5.7192 7.05463 5.70274 7.18808C5.68659 7.31896 5.71585 7.43646 5.74683 7.52904C5.74923 7.53622 5.75162 7.54216 5.75305 7.54573L5.75323 7.54617L5.75556 7.55225L5.75531 7.55233M5.93124 6.76795L5.75531 7.55233M5.75531 7.55233L5.75813 7.55906M5.75531 7.55233L5.75813 7.55906M5.75813 7.55906C5.98675 8.10628 6.30376 8.62479 6.79434 9.23934L6.79433 9.23935M5.75813 7.55906L6.79433 9.23935M6.79433 9.23935L6.79493 9.24008L6.79433 9.23935ZM10.0194 12.0224L10.0186 12.022C9.9984 12.0117 9.97771 12.0013 9.95664 11.9906C9.85055 11.9372 9.73475 11.8789 9.6257 11.8082C9.62553 11.8081 9.62536 11.808 9.62519 11.8079L9.67961 11.724L10.0194 12.0224ZM10.0194 12.0224C10.136 12.0805 10.2395 12.1335 10.3308 12.1914L10.3305 12.1918M10.0194 12.0224L10.3305 12.1918M10.3305 12.1918L10.3397 12.1964L10.3305 12.1918ZM13.1968 10.9829L13.1969 10.9828C13.0905 10.8687 12.9347 10.7564 12.7546 10.7564C12.6086 10.7564 12.4491 10.8293 12.2923 10.9855L11.2032 12.0704C11.1518 12.1216 10.975 12.2969 10.6988 12.2969C10.5882 12.2969 10.4797 12.2692 10.3712 12.2136C10.371 12.2135 10.3709 12.2134 10.3707 12.2133L10.4163 12.1243L13.1968 10.9829ZM13.1968 10.9829L13.1995 10.9855M13.1968 10.9829L13.1995 10.9855M13.1995 10.9855L14.9554 12.7318C15.1175 12.8933 15.187 13.0503 15.1858 13.1994C15.1847 13.3494 15.1118 13.5125 14.9452 13.6852L14.9442 13.6863M13.1995 10.9855L14.9442 13.6863M14.9442 13.6863C14.8239 13.8147 14.6974 13.9379 14.5609 14.0681L14.5604 14.0686M14.9442 13.6863L14.5604 14.0686M14.5604 14.0686C14.549 14.0797 14.5375 14.0907 14.526 14.1018M14.5604 14.0686L14.526 14.1018M14.526 14.1018C14.3339 14.2877 14.1311 14.4837 13.9464 14.7037L14.526 14.1018ZM4.76029 11.3704L4.76046 11.3706C6.15551 13.0319 7.8353 14.3404 9.7526 15.2662L9.7534 15.2666C10.4808 15.61 11.4647 16.0231 12.5647 16.094L12.5647 16.094L12.5668 16.0941L12.5756 16.0945C12.6391 16.0972 12.7027 16.1 12.7692 16.1C13.5201 16.1 14.1289 15.8403 14.6229 15.3069C14.626 15.3039 14.6354 15.2943 14.6442 15.2813C14.7968 15.0986 14.9689 14.9322 15.154 14.7533C15.1674 14.7404 15.1808 14.7274 15.1943 14.7144C15.3315 14.5835 15.4723 14.4462 15.6076 14.3056C15.9326 13.9681 16.1008 13.5786 16.1 13.1855C16.0992 12.7922 15.9292 12.4073 15.6003 12.0796L13.8509 10.3368C13.5381 10.0133 13.1581 9.83701 12.7546 9.83701C12.351 9.83701 11.9685 10.0134 11.6474 10.3332L10.6583 11.3185C10.5815 11.2768 10.5046 11.2385 10.4329 11.2028L10.4318 11.2022C10.3152 11.1442 10.2117 11.0911 10.1204 11.0332L10.1204 11.0332C9.18169 10.4394 8.32772 9.66399 7.50947 8.66459C7.11717 8.16985 6.85025 7.75399 6.66124 7.33715C6.91729 7.10323 7.15796 6.86052 7.38941 6.62452L7.38975 6.62417C7.47644 6.53493 7.56612 6.44558 7.65649 6.35555C7.98548 6.02781 8.1693 5.64093 8.1693 5.24036C8.1693 4.84022 7.98875 4.4532 7.65632 4.125C7.65627 4.12495 7.65622 4.1249 7.65617 4.12485L6.78873 3.26069C6.69009 3.16243 6.59689 3.06684 6.50058 2.96807L6.49276 2.96006C6.49275 2.96005 6.49274 2.96003 6.49273 2.96002C6.30073 2.76295 6.09861 2.55864 5.89886 2.37421C5.58304 2.06612 5.20681 1.9 4.80501 1.9C4.40551 1.9 4.02649 2.06659 3.69949 2.37714L3.69947 2.37712L3.69777 2.3788L2.60871 3.46376C2.19607 3.87484 1.96139 4.37556 1.9128 4.95349L1.91276 4.95392C1.85593 5.66605 1.98818 6.41791 2.32347 7.31747C2.83775 8.70805 3.61301 9.99708 4.76029 11.3704Z" fill="#A75248" stroke="#A75248" stroke-width="0.2"/>
</g>
</svg>
