<svg xmlns="http://www.w3.org/2000/svg" width="25" height="22" viewBox="0 0 25 22">
  <path id="telegram-icon" d="M1.153,11.653l6.114,3.064a.78.78,0,0,0,.742-.024l5.442-3.182-3.294,2.935a.789.789,0,0,0-.264.589v7.15a.782.782,0,0,0,1.406.472l2.643-3.534,6.535,3.743a.779.779,0,0,0,1-.195.788.788,0,0,0,.154-.333L25.705,1.911a.788.788,0,0,0-.264-.756.778.778,0,0,0-.786-.13L1.218,10.218a.787.787,0,0,0-.065,1.435Zm22.74-8.642L20.311,20.964l-6.193-3.547a.78.78,0,0,0-1.011.211l-1.651,2.207V15.389l8.907-7.937a.785.785,0,0,0-.91-1.268L7.588,13.122,3.43,11.038Z" transform="translate(-0.721 -0.971)" fill="#a75248"/>
</svg>
