<svg width="34" height="29" viewBox="0 0 34 29" fill="none" xmlns="http://www.w3.org/2000/svg">
<path d="M2.65101 15.4311L8.72953 18.4316C8.84484 18.4884 8.97255 18.5159 9.10124 18.5118C9.22993 18.5077 9.35558 18.472 9.46695 18.408L14.8774 15.2926L11.6026 18.167C11.5202 18.2392 11.4543 18.328 11.4091 18.4274C11.3639 18.5268 11.3406 18.6345 11.3405 18.7435V25.7448C11.3405 26.4834 12.2923 26.7942 12.7387 26.2074L15.3663 22.7473L21.8643 26.4126C21.9711 26.4727 22.0908 26.5069 22.2135 26.5124C22.3363 26.5178 22.4585 26.4943 22.5704 26.4439C22.6822 26.3934 22.7803 26.3174 22.8567 26.2221C22.9331 26.1268 22.9855 26.0149 23.0098 25.8956L27.0624 5.89191C27.0898 5.75654 27.0799 5.61637 27.0338 5.48609C26.9876 5.35582 26.9069 5.24024 26.8002 5.15149C26.6934 5.06273 26.5645 5.00407 26.427 4.98165C26.2894 4.95923 26.1483 4.97388 26.0185 5.02406L2.71523 14.0257C2.5751 14.0798 2.45386 14.1731 2.36621 14.2942C2.27857 14.4152 2.2283 14.5589 2.2215 14.7077C2.2147 14.8565 2.25166 15.0041 2.32791 15.1325C2.40416 15.2609 2.5164 15.3646 2.65101 15.4311ZM25.2603 6.96903L21.6986 24.5486L15.5413 21.0752C15.377 20.9829 15.1843 20.9529 14.9993 20.9909C14.8143 21.0288 14.6495 21.132 14.5357 21.2814L12.8941 23.4428V19.0892L21.7503 11.3175C22.4515 10.703 21.6457 9.61054 20.8451 10.0763L9.04853 16.8693L4.91402 14.8289L25.2603 6.96903Z" fill="#A75248"/>
</svg>
