<svg xmlns="http://www.w3.org/2000/svg" width="15" height="13" viewBox="0 0 15 13">
  <path id="telegram-icon-white" d="M.98,7.283,4.648,9.094a.474.474,0,0,0,.445-.014L8.358,7.2,6.382,8.934a.463.463,0,0,0-.158.348v4.225a.47.47,0,0,0,.844.279L8.653,11.7l3.921,2.212a.471.471,0,0,0,.6-.115.463.463,0,0,0,.092-.2L15.712,1.527a.462.462,0,0,0-.158-.447A.472.472,0,0,0,15.082,1L1.019,6.435A.468.468,0,0,0,.809,6.6.461.461,0,0,0,.785,7.1.467.467,0,0,0,.98,7.283ZM14.624,2.177,12.475,12.785l-3.716-2.1a.473.473,0,0,0-.607.124l-.991,1.3V9.491L12.506,4.8a.466.466,0,0,0-.546-.749l-7.119,4.1L2.346,6.92Z" transform="translate(-0.721 -0.971)" fill="#fff"/>
</svg>
