<svg xmlns="http://www.w3.org/2000/svg" width="21" height="12" viewBox="0 0 21 12">
  <path id="vk-white" d="M19.687,12H17.062a1.332,1.332,0,0,1-.575-.129,1.3,1.3,0,0,1-.459-.364l-2.559-3.2a.438.438,0,0,0-.22-.147.446.446,0,0,0-.266.006.437.437,0,0,0-.214.156.423.423,0,0,0-.082.248V9.857A2.421,2.421,0,0,1,10.062,12a3.007,3.007,0,0,1-1.6-.445A21.62,21.62,0,0,1,.124,1.832,1.263,1.263,0,0,1,.2.6,1.3,1.3,0,0,1,.68.159,1.334,1.334,0,0,1,1.311,0H3.936A1.333,1.333,0,0,1,4.66.211a1.293,1.293,0,0,1,.485.566l.3.675a10.991,10.991,0,0,0,1.778,2.8.122.122,0,0,0,.093.037.117.117,0,0,0,.047-.005A.115.115,0,0,0,7.4,4.257a.112.112,0,0,0,.028-.038.11.11,0,0,0,.01-.046V2.5a1.283,1.283,0,0,1-.852-1.428A1.305,1.305,0,0,1,7.874,0h3.5a1.3,1.3,0,0,1,1.313,1.286v3a.423.423,0,0,0,.089.258A.438.438,0,0,0,13,4.7a.446.446,0,0,0,.278-.013.436.436,0,0,0,.214-.174L15.941.616a1.291,1.291,0,0,1,.478-.453A1.323,1.323,0,0,1,17.062,0h2.625a1.333,1.333,0,0,1,.676.184,1.3,1.3,0,0,1,.483.5A1.264,1.264,0,0,1,20.776,2L18.019,5.748a.422.422,0,0,0,0,.5l2.735,3.712a1.264,1.264,0,0,1,.1,1.337,1.3,1.3,0,0,1-.484.51A1.333,1.333,0,0,1,19.687,12ZM13.124,7.286a1.33,1.33,0,0,1,.575.129,1.3,1.3,0,0,1,.459.364l2.559,3.2a.435.435,0,0,0,.153.122.445.445,0,0,0,.192.044h2.625a.445.445,0,0,0,.229-.063.432.432,0,0,0,.162-.171.421.421,0,0,0-.035-.447L17.308,6.75a1.264,1.264,0,0,1,0-1.505l2.751-3.734a.411.411,0,0,0,.066-.225.433.433,0,0,0-.437-.429H17.062a.444.444,0,0,0-.213.054.434.434,0,0,0-.159.149L14.246,4.955a1.325,1.325,0,0,1-1.476.569,1.29,1.29,0,0,1-.958-1.239v-3a.433.433,0,0,0-.438-.429h-3.5a.429.429,0,1,0,0,.857h.437V4.173a.967.967,0,0,1-.183.554,1,1,0,0,1-.472.354,1.021,1.021,0,0,1-.594.029,1,1,0,0,1-.506-.306A11.845,11.845,0,0,1,4.642,1.795l-.3-.675A.431.431,0,0,0,4.179.928.444.444,0,0,0,3.936.857H1.311a.44.44,0,0,0-.368.2.421.421,0,0,0-.026.411,20.581,20.581,0,0,0,8.018,9.369,2.15,2.15,0,0,0,1.127.305c.962,0,1.75-.578,1.75-1.286V8.571A1.3,1.3,0,0,1,13.124,7.286Z" fill="#fff"/>
</svg>
