<svg xmlns="http://www.w3.org/2000/svg" width="25" height="25" viewBox="0 0 25 25">
  <path id="whats-app" d="M22.18,3.94A12.459,12.459,0,0,0,.927,12.694a12.32,12.32,0,0,0,1.662,6.193L.822,25.307l6.6-1.723a12.483,12.483,0,0,0,5.948,1.508h.005A12.436,12.436,0,0,0,25.822,12.7,12.282,12.282,0,0,0,22.18,3.94ZM13.375,23h0A10.372,10.372,0,0,1,8.1,21.564l-.378-.223L3.811,22.364l1.045-3.8-.246-.39A10.293,10.293,0,0,1,13.379,2.4a10.3,10.3,0,1,1,0,20.6Zm5.675-7.712c-.311-.155-1.84-.9-2.125-1.007s-.492-.155-.7.155-.8,1.007-.985,1.214-.363.233-.674.078a8.508,8.508,0,0,1-2.5-1.536,9.349,9.349,0,0,1-1.73-2.144c-.181-.31,0-.461.136-.632a8.769,8.769,0,0,0,.778-1.059.567.567,0,0,0-.026-.542c-.078-.155-.7-1.678-.959-2.3-.253-.6-.509-.522-.7-.531s-.389-.011-.6-.011a1.145,1.145,0,0,0-.829.387A3.465,3.465,0,0,0,7.05,9.943a6.007,6.007,0,0,0,1.27,3.2,13.839,13.839,0,0,0,5.313,4.674,17.872,17.872,0,0,0,1.773.652,4.284,4.284,0,0,0,1.959.123,3.2,3.2,0,0,0,2.1-1.472,2.575,2.575,0,0,0,.181-1.472C19.568,15.52,19.36,15.443,19.05,15.288Z" transform="translate(-0.822 -0.307)" fill="#a75248" fill-rule="evenodd"/>
</svg>
