<svg width="173" height="173" viewBox="0 0 173 173" fill="none" xmlns="http://www.w3.org/2000/svg">
<path d="M12.3165 128.604L12.3277 128.564L12.3066 128.528C4.77716 115.543 0.815978 100.811 0.822489 85.7197C0.841479 38.5109 39.4375 0.1 86.8616 0.1C109.877 0.10945 131.48 9.02691 147.724 25.2121L147.791 25.1446L147.724 25.2121C163.969 41.3964 172.91 62.9081 172.9 85.7882C172.882 132.999 134.282 171.413 86.863 171.413H86.8266C72.4279 171.409 58.2789 167.814 45.7115 160.991L45.6767 160.972L45.6385 160.982L0.142369 172.859L12.3165 128.604ZM50.3922 147.104L50.3414 147.19C61.3509 153.69 73.9678 157.13 86.8317 157.135H86.8616C126.379 157.135 158.54 125.127 158.557 85.7829C158.563 66.717 151.113 48.7896 137.577 35.3028C124.042 21.816 106.04 14.3847 86.8905 14.3785C47.3446 14.3785 15.1812 46.384 15.1662 85.7247C15.1597 99.2065 18.9497 112.337 26.1266 123.698L27.806 126.356L20.5852 152.607L20.5393 152.774L20.7069 152.73L47.7643 145.666L50.3414 147.19L50.3922 147.104ZM106.667 97.8304L106.667 97.8303C107.373 96.7747 108.067 96.3511 108.814 96.2658C109.572 96.1793 110.403 96.4376 111.391 96.7961C112.372 97.1519 115.505 98.6228 118.669 100.143C121.83 101.661 125.013 103.224 126.088 103.76C126.514 103.973 126.91 104.163 127.276 104.339C127.84 104.61 128.332 104.847 128.753 105.077C129.446 105.455 129.918 105.802 130.171 106.224L130.171 106.224C130.293 106.426 130.393 106.841 130.441 107.445C130.488 108.045 130.483 108.815 130.405 109.716C130.249 111.517 129.802 113.831 128.909 116.325C128.023 118.794 125.449 121.171 122.563 123.012C119.679 124.852 116.509 126.14 114.46 126.445C110.759 126.995 106.085 127.224 100.949 125.6C97.8234 124.613 93.8185 123.297 88.6878 121.09L88.6483 121.182L88.6878 121.09C68.5392 112.432 54.9185 92.9935 52.3389 89.3121C52.1582 89.0541 52.0316 88.8735 51.9609 88.7794L51.8855 88.8361L51.9609 88.7794L51.9417 88.754C51.3736 87.9992 49.2075 85.1214 47.1726 81.1327C45.1133 77.0962 43.1929 71.9305 43.1929 66.6815C43.1929 56.8552 48.0378 51.7091 50.2763 49.3314C50.4301 49.168 50.5716 49.0177 50.6984 48.8799C52.6494 46.7583 54.9528 46.2313 56.3647 46.2313C57.8 46.2313 59.2333 46.244 60.4847 46.3063C60.6484 46.3143 60.8148 46.3134 60.9844 46.3125C61.5251 46.3095 62.0974 46.3063 62.7089 46.594C63.5039 46.968 64.3711 47.8446 65.2409 49.9216C65.8313 51.3343 66.6941 53.425 67.605 55.6325C68.0771 56.7765 68.5622 57.952 69.029 59.0806C70.395 62.3836 71.6075 65.2928 71.8781 65.8329L71.8782 65.833C72.4108 66.8924 72.756 68.107 72.0585 69.496C71.7043 70.2014 70.9468 71.3068 69.9822 72.6005C69.0192 73.8921 67.8543 75.3655 66.6898 76.8048C66.5933 76.9238 66.4914 77.0443 66.3888 77.1658C66.2436 77.3376 66.0968 77.5112 65.9618 77.6849C65.728 77.9855 65.516 78.3024 65.3743 78.6534C65.0875 79.3641 65.097 80.1948 65.737 81.2899L65.7371 81.29C66.9949 83.4361 71.3205 90.4613 77.7302 96.1517C84.6237 102.27 90.6194 104.858 93.6465 106.165C94.2353 106.419 94.7118 106.625 95.0608 106.798C96.1437 107.338 97.0167 107.571 97.7851 107.478C98.5576 107.385 99.2058 106.964 99.8435 106.238C101.099 104.811 105.227 99.9805 106.667 97.8304Z" fill="#A75248" stroke="white" stroke-width="0.2"/>
</svg>
