<svg xmlns="http://www.w3.org/2000/svg" width="15" height="15" viewBox="0 0 15 15">
  <path id="whats-app-white" d="M13.637,2.487A7.476,7.476,0,0,0,.885,7.739a7.392,7.392,0,0,0,1,3.716L.822,15.307l3.959-1.034a7.49,7.49,0,0,0,3.569.9h0a7.462,7.462,0,0,0,7.469-7.433A7.369,7.369,0,0,0,13.637,2.487ZM8.354,13.922h0a6.223,6.223,0,0,1-3.159-.861l-.227-.134-2.35.613.627-2.28-.148-.234A6.176,6.176,0,0,1,8.356,1.562a6.18,6.18,0,1,1,0,12.36ZM11.759,9.3c-.187-.093-1.1-.542-1.275-.6s-.3-.093-.42.093-.482.6-.591.728-.218.14-.4.047a5.1,5.1,0,0,1-1.5-.922A5.609,5.609,0,0,1,6.529,7.351c-.109-.186,0-.277.082-.379a5.262,5.262,0,0,0,.467-.635.34.34,0,0,0-.016-.325C7.016,5.918,6.642,5,6.487,4.632s-.305-.313-.42-.319-.233-.007-.358-.007a.687.687,0,0,0-.5.232,2.079,2.079,0,0,0-.653,1.549A3.6,3.6,0,0,0,5.321,8.01a8.3,8.3,0,0,0,3.188,2.8,10.723,10.723,0,0,0,1.064.391,2.57,2.57,0,0,0,1.175.074,1.923,1.923,0,0,0,1.26-.883,1.545,1.545,0,0,0,.109-.883C12.07,9.435,11.945,9.389,11.759,9.3Z" transform="translate(-0.822 -0.307)" fill="#fff" fill-rule="evenodd"/>
</svg>
